PathFileType	4	(X/Y/Z)	Patient4_TMGait_0pt6_01_left_13.trc.trc
DataRate	CameraRate	NumFrames	NumMarkers	Units	OrigDataRate	OrigDataStartFrame	OrigNumFrames
80.924855491329	80.924855491329	4	33	mm	80.924855491329	71	       141
Frame#	Time	Sacral			L.Shoulder			Chest			R.Shoulder			Neck			R.ASIS			L.ASIS			R.Thigh.Superior			R.Thigh.Lateral			R.Thigh.Inferior			R.Patella			L.Thigh.Superior			L.Thigh.Lateral			L.Thigh.Inferior			L.Patella			L.Shank.Superior			L.Shank.Lateral			L.Shank.Inferior			R.Shank.Superior			R.Shank.Lateral			R.Shank.Inferior			R.Heel			R.Midfoot.Superior			R.Midfoot.Lateral			R.Toe			L.Heel			L.Midfoot.Lateral			L.Midfoot.Superior			L.Toe			L.Elbow			L.Wrist			R.Elbow			R.Wrist			
		X1	Y1	Z1	X2	Y2	Z2	X3	Y3	Z3	X4	Y4	Z4	X5	Y5	Z5	X6	Y6	Z6	X7	Y7	Z7	X8	Y8	Z8	X9	Y9	Z9	X10	Y10	Z10	X11	Y11	Z11	X12	Y12	Z12	X13	Y13	Z13	X14	Y14	Z14	X15	Y15	Z15	X16	Y16	Z16	X17	Y17	Z17	X18	Y18	Z18	X19	Y19	Z19	X20	Y20	Z20	X21	Y21	Z21	X22	Y22	Z22	X23	Y23	Z23	X24	Y24	Z24	X25	Y25	Z25	X26	Y26	Z26	X27	Y27	Z27	X28	Y28	Z28	X29	Y29	Z29	X30	Y30	Z30	X31	Y31	Z31	X32	Y32	Z32	X33	Y33	Z33	

71	16.635000000000	651.732157730705	1005.532621675519	432.207304053320	835.745899088692	1440.433338607246	270.744252940751	930.101784407169	1365.738477231346	433.498710852712	836.872439824104	1430.837038598441	604.743366322704	804.936246330090	1493.917721077337	424.970418110032	874.657437407111	942.059692598588	557.234788151070	868.876884913660	961.793119634909	282.678740121292	943.316285487652	761.843411686772	526.479403131007	895.351406203644	644.141526336428	598.214254434920	975.624204254447	602.849112403284	512.330268912762	1006.229848345256	524.018761906089	524.857776969472	877.200185344881	731.727262671859	315.275664684950	764.223289581376	634.181055328833	252.456226739894	823.639790371031	543.083928964382	320.325492812343	808.158597453554	476.330606972525	331.811626234204	776.730971510017	409.016977175214	323.998880826252	675.702150329729	303.978498259135	276.645464446559	712.657029699454	189.672502829090	349.691639865425	996.104231729567	435.238467214057	537.403206371678	953.910677690311	318.603999499677	603.907563806689	1023.664873458844	236.468337689248	546.549829559754	937.535481111894	44.453728727938	518.450357918249	1096.558945042822	125.074124871481	556.438692757541	1022.061906865411	46.478589180641	592.271251178423	1223.541010610323	93.669830796701	584.679146671131	571.063612176647	40.792211439638	396.271825401686	641.650403248830	36.307805971126	313.438057516418	727.334302902033	95.788621159718	336.523374581290	853.151300473070	39.240174975968	301.919200847370	912.481522232775	1109.648728995444	126.182973864894	1166.552005516158	1064.985673076984	134.470652002224	692.902562118490	1113.362346122122	697.569646494879	650.457994793268	856.166115508899	703.953575173089	
72	16.647357142857	652.375567262702	1004.486250100409	433.527161240546	835.967190738948	1439.330604787993	272.217608252801	930.348153272362	1364.799272362717	435.012475739784	836.868761938764	1429.670425103802	606.213522099896	804.780981007010	1492.784258850107	426.488349355177	875.193013836285	940.907621656459	558.901564990030	869.826006247281	960.574633544898	284.399677513641	941.889328919350	758.684130360403	528.696738053409	892.233199250911	641.745309678929	599.909677125956	971.694204530741	599.962233355814	513.525190729218	1000.960718582624	521.846009038249	525.571328776714	876.429505834772	730.153860222516	316.995060595697	762.746040027970	633.439841430504	253.742355278016	821.254354855494	541.847452408690	321.698267285420	805.115444692491	474.925935188004	333.096510074490	772.906157339140	407.852316691358	325.078662064506	670.815130185987	303.980163678652	277.338502920160	706.329945918781	189.170741554998	350.206607925359	992.529470578744	433.099125142123	538.412850987459	951.664277136548	315.739767341097	604.365901967995	1022.734573899421	234.703470959779	546.839159286463	939.105026254456	42.169488456016	517.896531216130	1097.483731746846	123.634031294617	556.507454163058	1023.436140515727	44.611069241269	591.769140608087	1224.539622873609	92.939868915444	584.425706677347	563.597335867197	40.916058359936	396.257751028598	634.234461332556	36.404484319282	313.455116865809	719.976343292894	95.774157139708	336.633044685413	845.723099097739	39.139055528685	301.867691436541	913.016468736594	1108.673874428523	127.543721080761	1167.154066201614	1065.351184907318	136.869459248429	695.206365331723	1110.939258356027	699.175926808918	654.491252002478	853.529591192662	706.527702096184	
73	16.659714285714	653.151013160920	1003.363220203099	435.106799009360	836.062442999623	1438.192783718560	273.848762114122	930.565635168917	1363.894977120808	436.665160527388	836.843894733119	1428.472405805035	607.862433669806	804.597079773021	1491.620689195400	428.190186055081	875.886284494301	939.722195106458	560.743110291581	870.870086597878	959.361689344096	286.286128764940	941.346002490363	756.217231331010	530.950826570147	890.026892813106	639.573850163014	601.263195005958	969.267584280155	597.721776885442	514.862038842255	996.830813572470	519.551438469387	526.344619384517	875.923023449136	728.584413760656	318.775292915036	761.596770203452	632.608017738954	255.201346020903	819.408551260881	540.535476162494	323.155188845612	802.700858838047	473.326264642957	334.445154630426	769.525876445211	406.536035293807	326.243676051458	666.198706978738	304.015688734584	278.093766110300	700.109810001561	188.636867094701	350.731932141603	989.141098231093	430.670502095253	539.224019837408	948.081942442266	313.210998344406	604.443174177260	1019.398662970019	232.518708674376	546.834815222708	935.986437611737	40.882392706954	516.991300099212	1094.457546338932	121.290771699493	556.356725047125	1019.929361892646	42.991550943379	591.099565755507	1221.066532730278	89.924071443995	584.248958623561	556.095609435593	41.114636778344	396.203981118746	626.812774902456	36.503494173342	313.451478562853	712.644971484914	95.764365053171	336.711489214263	838.321878561308	39.031024833412	301.809393816661	913.118905222640	1107.532637858999	129.000628983718	1167.210428843925	1064.558596447029	139.301858358243	698.241240371757	1108.072549571611	700.988253003336	660.235978959395	850.320877678966	709.306186281299	
74	16.672071428571	654.047568234195	1002.187485660181	436.940952790927	836.051118917393	1437.053674768231	275.653225173630	930.765639649079	1363.043482833044	438.471455846005	836.822001599119	1427.274357645186	609.705942015849	804.410095492610	1490.465336756462	430.074244900708	876.748588806187	938.541034389190	562.747786610683	871.953880948884	958.194722550558	288.319598018471	941.687862877184	754.412468693488	533.218153465813	888.609773083324	637.615910648693	602.270215336883	968.237252984616	596.029545063165	516.369003111207	993.791112394138	517.147902017536	527.157835121364	875.707428358342	727.067955824710	320.546802026991	760.819965236561	631.682524985740	256.817858851077	818.224968282755	539.155489461488	324.639787252074	801.078404491148	471.512255348267	335.777017915429	766.702596641746	405.066375297821	327.449275429048	661.921020329812	304.124556423749	278.900883716110	694.054742410513	188.100112448191	351.234464526980	986.002715998253	427.999282780937	539.833412467589	943.497255262567	310.934239416649	604.243489682919	1014.121496033366	229.907712358125	546.583894597178	928.935351715970	40.288596804025	515.915470794248	1088.146775947812	118.138208671198	555.997405505951	1012.387911211810	41.516616298976	590.390673803994	1213.954370795134	84.991993159167	584.107736201087	548.570078839826	41.474481090183	396.102779422232	619.391889881334	36.639148864666	313.423474586831	705.375231927871	95.766175595549	336.736933899013	830.955889845626	38.911590896369	301.742399234097	912.775399189083	1106.246680856210	130.584075260124	1166.706968312635	1062.612509046290	141.756866035735	701.968486693823	1104.852455456835	703.005727324461	667.639236953512	846.655838485923	712.237563074075	
